<svg id="Layer_1" enable-background="new 0 0 512 512" height="512" viewBox="0 0 512 512" width="512" xmlns="http://www.w3.org/2000/svg"><g><path clip-rule="evenodd" d="m300.476 42.152h185.898c14.089 0 25.626 11.537 25.626 25.654v376.416c0 14.088-11.537 25.625-25.626 25.625h-259.486c-14.117 0-25.653-11.537-25.653-25.625v-302.827z" fill="#fff9df" fill-rule="evenodd"/><path clip-rule="evenodd" d="m456.355 42.152h30.019c14.089 0 25.626 11.537 25.626 25.654v376.416c0 14.088-11.537 25.625-25.626 25.625h-30.019c14.117 0 25.654-11.537 25.654-25.625v-376.415c0-14.118-11.537-25.655-25.654-25.655z" fill="#fff3bf" fill-rule="evenodd"/><path clip-rule="evenodd" d="m403.999 187.203 29.877-4.762 31.408 4.762v141.988l-28.007 3.119-33.278-3.119z" fill="#fc7070" fill-rule="evenodd"/><path d="m356.631 382.908c-4.139 0-7.512-3.373-7.512-7.512s3.373-7.512 7.512-7.512h77.67v15.023h-77.67z" fill="#d15a63"/><g clip-rule="evenodd" fill-rule="evenodd"><path d="m274.822 141.395c14.117 0 25.654-11.537 25.654-25.654 0-24.519 0-49.068 0-73.588l-99.242 99.242z" fill="#ffe07d"/><path d="m350.622 187.203h-344.612c-3.316 0-6.01 2.693-6.01 5.98v223.713c0 3.289 2.693 6.01 6.01 6.01h344.612c3.288 0 6.009-2.721 6.009-6.01v-223.712c0-3.288-2.721-5.981-6.009-5.981z" fill="#d3effb"/><path d="m350.622 187.203h-29.991c3.288 0 5.981 2.693 5.981 5.98v223.713c0 3.289-2.693 6.01-5.981 6.01h29.991c3.288 0 6.009-2.721 6.009-6.01v-223.712c0-3.288-2.721-5.981-6.009-5.981z" fill="#b1e4f9"/><path d="m1.559 420.922c1.106 1.219 2.693 1.984 4.451 1.984h172.292l-84.502-107.064c-2.892-3.658-6.435-3.602-9.298 0z" fill="#95d6a4"/><path d="m148.311 422.906h29.991l-84.502-107.064c-2.892-3.658-6.435-3.602-9.298 0l-10.346 13.123z" fill="#78c2a4"/><path d="m89.151 422.906h261.471c1.757 0 3.345-.766 4.45-1.984l-127.532-161.549c-3.062-3.883-6.236-3.883-9.297 0z" fill="#b3e59f"/><path d="m326.612 422.906h24.01c1.757 0 3.345-.766 4.45-1.984l-127.532-161.549c-3.062-3.883-6.236-3.883-9.297 0l-10.347 13.125z" fill="#95d6a4"/></g><path d="m427.129 187.203h14.996v141.988h-14.996z" fill="#d15a63"/><path clip-rule="evenodd" d="m440.906 378.06 24.378-48.869h-61.285l24.378 48.869c3.288 6.606 9.382 6.266 12.529 0z" fill="#ffe07d" fill-rule="evenodd"/><path clip-rule="evenodd" d="m440.906 378.06 24.378-48.869h-29.991l-15.647 31.352 8.731 17.517c3.288 6.606 9.382 6.266 12.529 0z" fill="#ffd064" fill-rule="evenodd"/><path clip-rule="evenodd" d="m465.284 187.203v-33.223c0-9.439-7.738-17.178-17.178-17.178h-26.93c-9.468 0-17.178 7.738-17.178 17.178v33.223z" fill="#90d8f9" fill-rule="evenodd"/><path clip-rule="evenodd" d="m465.284 187.203v-33.223c0-9.439-7.738-17.178-17.178-17.178h-26.93c-.539 0-1.049.029-1.531.057 8.731.793 15.647 8.191 15.647 17.121v33.223z" fill="#75cef9" fill-rule="evenodd"/><path clip-rule="evenodd" d="m89.151 279.953c16.923 0 30.728-13.805 30.728-30.699 0-16.922-13.805-30.729-30.728-30.729-16.895 0-30.7 13.807-30.7 30.729 0 16.894 13.805 30.699 30.7 30.699z" fill="#ffe07d" fill-rule="evenodd"/><path clip-rule="evenodd" d="m89.151 218.525c16.98 0 30.728 13.748 30.728 30.729 0 16.951-13.748 30.699-30.728 30.699-5.442 0-10.545-1.418-14.995-3.912 9.382-5.244 15.704-15.279 15.704-26.787s-6.321-21.543-15.704-26.816c4.45-2.495 9.553-3.913 14.995-3.913z" fill="#ffd064" fill-rule="evenodd"/></g></svg>