<svg width="593" height="476" viewBox="0 0 593 476" fill="none" xmlns="http://www.w3.org/2000/svg">
<path opacity="0.1" d="M304.738 476C452.593 476 572.453 369.444 572.453 238C572.453 106.556 452.593 0 304.738 0C156.884 0 37.0239 106.556 37.0239 238C37.0239 369.444 156.884 476 304.738 476Z" fill="#276EF1"/>
<path opacity="0.1" d="M98.7113 374.985C153.228 374.985 197.423 368.161 197.423 359.744C197.423 351.326 153.228 344.503 98.7113 344.503C44.1946 344.503 0 351.326 0 359.744C0 368.161 44.1946 374.985 98.7113 374.985Z" fill="#276EF1"/>
<path opacity="0.1" d="M146.158 447.593C167.362 447.593 184.552 444.056 184.552 439.693C184.552 435.329 167.362 431.792 146.158 431.792C124.953 431.792 107.764 435.329 107.764 439.693C107.764 444.056 124.953 447.593 146.158 447.593Z" fill="#276EF1"/>
<path opacity="0.1" d="M408.502 417.197C429.707 417.197 446.896 413.66 446.896 409.296C446.896 404.933 429.707 401.396 408.502 401.396C387.298 401.396 370.108 404.933 370.108 409.296C370.108 413.66 387.298 417.197 408.502 417.197Z" fill="#276EF1"/>
<path opacity="0.1" d="M278.223 410.566C312.705 410.566 340.658 405.849 340.658 400.03C340.658 394.211 312.705 389.494 278.223 389.494C243.742 389.494 215.789 394.211 215.789 400.03C215.789 405.849 243.742 410.566 278.223 410.566Z" fill="#276EF1"/>
<path opacity="0.1" d="M462.189 368.193C534.109 368.193 592.413 359.097 592.413 347.876C592.413 336.655 534.109 327.559 462.189 327.559C390.268 327.559 331.964 336.655 331.964 347.876C331.964 359.097 390.268 368.193 462.189 368.193Z" fill="#276EF1"/>
<path d="M26.9924 312.415C24.0672 318.084 22.701 324.423 23.0326 330.788C23.3642 337.153 25.3819 343.317 28.8806 348.654C30.0284 350.369 31.0843 351.603 31.928 351.929C35.974 353.513 44.0775 357.406 44.0775 357.406L63.5902 349.768C63.5902 349.768 66.7582 333.075 69.7539 318.743C71.797 308.968 73.7713 300.295 74.5805 298.775C76.6006 295.03 74.5805 254.264 74.5805 254.264C74.5805 254.264 55.0678 252.961 49.7018 267.944L47.3545 272.518L26.9924 312.415Z" fill="#A8A8A8"/>
<path opacity="0.1" d="M52.8929 316.92C64.7555 330.463 69.7599 318.749 69.7599 318.749C71.803 308.973 73.7773 300.301 74.5865 298.781C76.6066 295.036 74.5865 254.27 74.5865 254.27C74.5865 254.27 55.0738 252.966 49.7078 267.95L47.3605 272.523C45.8569 284.511 44.3705 307.173 52.8929 316.92Z" fill="white"/>
<path d="M55.4971 354.667L124.365 346.744L136.653 266.206L127.361 245.288C123.436 236.38 118 228.212 111.292 221.141C106.615 216.23 100.962 211.508 95.016 209.136C94.2035 208.809 93.374 208.527 92.531 208.29C91.562 207.996 90.5372 207.935 89.5399 208.111C88.5426 208.287 87.6011 208.695 86.792 209.301C78.2982 215.298 75.2623 240.795 74.2809 253.069C73.8772 258.112 73.1932 263.13 72.2321 268.098L55.4971 354.667Z" fill="#A8A8A8"/>
<path opacity="0.1" d="M101.351 265.338L87.0037 300.496C94.5219 295.02 105.661 265.195 105.661 265.195L115.641 299.199L107.687 263.36C108.852 255.578 109.19 247.695 108.697 239.841C108.066 230.843 99.5894 216.403 94.9867 209.131C94.1742 208.805 93.3447 208.522 92.5017 208.285C91.5327 207.992 90.5078 207.931 89.5106 208.106C88.5133 208.282 87.5718 208.69 86.7627 209.297C90.3783 216.529 99.4172 234.611 102.172 239.984C105.667 246.753 101.351 265.338 101.351 265.338Z" fill="white"/>
<path d="M113.065 357.405H150.432C151.969 357.406 153.49 357.095 154.903 356.491C156.315 355.888 157.59 355.004 158.649 353.895C159.708 352.785 160.53 351.473 161.064 350.037C161.598 348.601 161.833 347.072 161.755 345.543C160.929 329.582 158.834 301.124 153.852 283.059C151.161 273.312 148.033 268.195 145.163 265.674C143.818 264.381 142.08 263.567 140.222 263.359C138.812 263.238 137.402 263.579 136.205 264.331C129.266 270.957 121.163 305.823 121.163 305.823L113.065 357.405Z" fill="#A8A8A8"/>
<path opacity="0.1" d="M147.56 326.484C149.098 330.732 149.706 335.631 147.56 340.404L139.233 344.503C139.233 344.503 116.85 335.054 119.571 315.685C119.571 315.685 120.305 311.684 128.013 311.992C132.347 312.201 136.522 313.691 140.003 316.272C143.484 318.853 146.115 322.408 147.56 326.484V326.484Z" fill="white"/>
<path opacity="0.1" d="M138.664 275.571C138.406 268.78 142.107 266.424 145.166 265.675C143.821 264.382 142.083 263.568 140.225 263.36C138.096 265.135 136.587 267.537 135.915 270.22L128.11 308.116C128.11 308.116 139.1 286.953 138.664 275.571Z" fill="white"/>
<path d="M103.235 305.538L121.737 330.749L124.945 351.558L113.054 357.406L95.9116 361.179C94.2606 361.544 92.563 361.654 90.8785 361.505L44.0996 357.406L50.4642 342.708L72.4447 311.969L103.235 305.538Z" fill="#A8A8A8"/>
<path opacity="0.1" d="M96.0691 296.883C96.0691 296.883 108.695 297.746 103.954 319.355C99.214 340.965 50.438 342.697 50.438 342.697C50.438 342.697 60.8027 324.403 76.7457 311.295C78.5363 309.826 80.2638 308.293 81.9109 306.658C85.5781 303.005 92.5912 296.585 96.0691 296.883Z" fill="white"/>
<path opacity="0.1" d="M107.431 313.175C107.431 313.175 124.539 328.684 122.927 352.552Z" fill="black"/>
<path opacity="0.1" d="M136.205 264.332C136.205 264.332 118.254 288.114 116.239 324.707Z" fill="black"/>
<path opacity="0.1" d="M74.593 254.252C74.593 254.252 83.2819 293.555 61.5884 323.18Z" fill="black"/>
<path d="M232.846 399.813H326.473C327.378 399.808 328.266 399.57 329.051 399.122C329.837 398.674 330.492 398.031 330.955 397.256C331.417 396.481 331.67 395.6 331.689 394.698C331.708 393.797 331.493 392.906 331.064 392.112L284.274 305.515C283.825 304.685 283.159 303.991 282.347 303.507C281.535 303.024 280.606 302.768 279.659 302.768C278.713 302.768 277.784 303.024 276.972 303.507C276.159 303.991 275.494 304.685 275.045 305.515L228.232 392.112C227.802 392.908 227.587 393.801 227.607 394.704C227.627 395.607 227.882 396.49 228.347 397.266C228.812 398.041 229.471 398.684 230.259 399.13C231.048 399.577 231.939 399.812 232.846 399.813V399.813ZM285.617 383.989H273.702V372.126H285.617V383.989ZM285.617 364.214H273.702V340.484H285.617V364.214Z" fill="#464353"/>
<path opacity="0.1" d="M232.846 399.813H326.473C327.378 399.808 328.266 399.57 329.051 399.122C329.837 398.674 330.492 398.031 330.955 397.256C331.417 396.481 331.67 395.6 331.689 394.698C331.708 393.797 331.493 392.906 331.064 392.112L284.274 305.515C283.825 304.685 283.159 303.991 282.347 303.507C281.535 303.024 280.606 302.768 279.659 302.768C278.713 302.768 277.784 303.024 276.972 303.507C276.159 303.991 275.494 304.685 275.045 305.515L228.232 392.112C227.802 392.908 227.587 393.801 227.607 394.704C227.627 395.607 227.882 396.49 228.347 397.266C228.812 398.041 229.471 398.684 230.259 399.13C231.048 399.577 231.939 399.812 232.846 399.813V399.813ZM285.617 383.989H273.702V372.126H285.617V383.989ZM285.617 364.214H273.702V340.484H285.617V364.214Z" fill="black"/>
<path d="M232.846 402.671H326.473C327.378 402.666 328.266 402.428 329.051 401.98C329.837 401.532 330.492 400.889 330.955 400.114C331.417 399.339 331.67 398.458 331.689 397.557C331.708 396.655 331.493 395.764 331.064 394.97L284.274 308.373C283.825 307.543 283.159 306.849 282.347 306.365C281.535 305.882 280.606 305.627 279.659 305.627C278.713 305.627 277.784 305.882 276.972 306.365C276.159 306.849 275.494 307.543 275.045 308.373L228.232 394.97C227.802 395.766 227.587 396.659 227.607 397.562C227.627 398.465 227.882 399.348 228.347 400.124C228.812 400.899 229.471 401.542 230.259 401.988C231.048 402.435 231.939 402.67 232.846 402.671V402.671ZM285.617 386.847H273.702V374.985H285.617V386.847ZM285.617 367.073H273.702V343.342H285.617V367.073Z" fill="#464353"/>
<path d="M134.186 135.326C134.123 136.521 134.72 137.613 135.07 138.756C135.649 140.965 135.592 143.291 134.904 145.468C134.261 147.755 133.182 150.173 134.003 152.408C134.192 152.934 134.479 153.414 134.651 153.94C135.363 156.113 134.043 158.399 132.597 160.177L138.273 164.139C139.101 164.823 140.087 165.293 141.142 165.505C142.204 165.631 143.438 165.065 143.656 164.025C143.73 163.67 143.656 163.299 143.725 162.938C143.795 162.473 143.975 162.03 144.252 161.648C144.528 161.267 144.893 160.956 145.314 160.743C146.167 160.327 147.118 160.151 148.063 160.234C151.547 160.423 154.508 162.704 157.676 164.168C159.765 165.068 161.929 165.784 164.144 166.306C165.401 166.631 166.796 166.929 167.932 166.306C169.068 165.682 169.591 164.236 169.504 162.927C169.328 161.625 168.92 160.365 168.299 159.205C167.673 158.047 167.296 156.772 167.192 155.461C167.192 153.54 168.248 151.791 168.603 149.904C169.103 147.223 168.087 144.496 166.847 142.061C165.608 139.625 164.104 137.282 163.501 134.629C163.382 133.825 163.172 133.037 162.876 132.279C162.589 131.704 162.2 131.185 161.728 130.747C159.599 128.649 156.563 127.655 153.59 127.437C150.617 127.22 147.616 127.706 144.666 128.215C143.54 128.375 142.432 128.637 141.354 128.998C139.815 129.608 138.353 130.396 136.999 131.348C135.656 132.274 134.272 133.629 134.186 135.326Z" fill="#464353"/>
<g opacity="0.1">
<path opacity="0.1" d="M167.174 154.29C167.174 154.462 167.174 154.633 167.208 154.799C167.386 153.124 168.27 151.552 168.586 149.877C168.707 149.206 168.744 148.522 168.695 147.841C168.695 148.139 168.637 148.413 168.586 148.733C168.224 150.62 167.151 152.369 167.174 154.29Z" fill="black"/>
<path opacity="0.1" d="M135.456 141.044C135.523 139.887 135.393 138.727 135.071 137.614C134.731 136.746 134.453 135.856 134.239 134.95C134.239 135.07 134.193 135.184 134.187 135.304C134.124 136.499 134.721 137.591 135.071 138.734C135.293 139.486 135.422 140.261 135.456 141.044V141.044Z" fill="black"/>
<path opacity="0.1" d="M169.451 162.613C169.411 163.124 169.251 163.618 168.984 164.056C168.716 164.494 168.35 164.863 167.913 165.134C166.765 165.757 165.382 165.46 164.125 165.134C161.909 164.613 159.745 163.895 157.657 162.99C154.489 161.532 151.528 159.251 148.044 159.063C147.099 158.979 146.148 159.155 145.295 159.572C144.874 159.785 144.509 160.095 144.233 160.477C143.956 160.859 143.775 161.301 143.706 161.767C143.665 162.127 143.706 162.499 143.637 162.853C143.413 163.893 142.185 164.459 141.123 164.334C140.068 164.121 139.082 163.652 138.254 162.967L133.152 159.4C132.962 159.657 132.773 159.909 132.578 160.143L138.254 164.111C139.082 164.795 140.068 165.264 141.123 165.477C142.185 165.603 143.419 165.037 143.637 163.996C143.711 163.642 143.637 163.27 143.706 162.91C143.775 162.444 143.956 162.002 144.233 161.62C144.509 161.238 144.874 160.928 145.295 160.715C146.148 160.299 147.099 160.123 148.044 160.206C151.528 160.395 154.489 162.676 157.657 164.134C159.745 165.039 161.909 165.756 164.125 166.277C165.382 166.603 166.777 166.9 167.913 166.277C169.049 165.654 169.571 164.208 169.485 162.899C169.48 162.802 169.462 162.71 169.451 162.613Z" fill="black"/>
<path opacity="0.1" d="M134.645 153.912C134.716 154.142 134.768 154.377 134.8 154.616C134.889 153.996 134.836 153.365 134.645 152.769C134.473 152.243 134.186 151.763 133.997 151.237C133.858 150.855 133.77 150.458 133.733 150.054C133.648 150.839 133.738 151.633 133.997 152.38C134.186 152.906 134.473 153.392 134.645 153.912Z" fill="black"/>
</g>
<path d="M141.39 370.834C141.35 370.997 141.257 371.142 141.126 371.246C140.986 371.318 140.829 371.352 140.672 371.343C138.629 371.389 136.586 371.343 134.549 371.486C132.62 371.652 130.686 372.057 128.764 371.84C128.149 371.862 127.542 371.693 127.028 371.356C126.514 371.019 126.118 370.531 125.894 369.959C125.773 369.71 125.666 369.454 125.573 369.193C125.043 367.846 124.776 366.41 124.786 364.963C124.786 364.58 124.786 364.208 124.786 363.82C124.761 363.401 124.706 362.984 124.62 362.573C124.446 362.103 124.467 361.583 124.677 361.127C125.492 359.646 127.461 359.349 128.976 359.235C132.486 358.972 136.016 359.23 139.45 360.001C139.719 361.316 140.024 362.619 140.345 363.923C140.582 364.879 140.835 365.832 141.103 366.781C141.282 367.369 141.428 367.966 141.539 368.57C141.681 369.325 141.629 370.104 141.39 370.834Z" fill="#464353"/>
<path opacity="0.06" d="M141.384 370.834C141.344 370.997 141.251 371.142 141.12 371.246C140.98 371.318 140.823 371.352 140.666 371.343C138.623 371.389 136.58 371.343 134.543 371.486C132.614 371.652 130.68 372.058 128.758 371.841C128.143 371.862 127.536 371.693 127.022 371.356C126.508 371.019 126.112 370.531 125.888 369.96C125.767 369.711 125.66 369.455 125.567 369.194H126.301C128.718 369.194 131.14 369.108 133.556 369.108C134.285 369.108 135.019 369.074 135.742 368.988C136.465 368.902 137.056 368.782 137.716 368.702C138.704 368.608 139.697 368.568 140.689 368.582H141.504C141.653 369.331 141.612 370.105 141.384 370.834Z" fill="black"/>
<path d="M183.651 360.219C183.012 360.963 182.195 361.535 181.275 361.882C177.189 363.597 172.466 362.826 168.248 361.431C167.304 361.082 166.335 360.805 165.35 360.602C164.45 360.476 163.543 360.413 162.635 360.413C161.987 360.413 161.338 360.362 160.69 360.322C159.048 360.219 157.413 360.059 155.783 359.899C154.646 359.816 153.518 359.646 152.408 359.39C152.092 359.309 151.789 359.186 151.507 359.024V359.024C151.266 358.919 151.061 358.747 150.914 358.529C150.768 358.312 150.687 358.057 150.681 357.795C150.727 357.069 151.484 356.652 152.15 356.337C158.055 353.793 164.472 352.69 170.842 351.804C171.49 351.696 172.121 351.504 172.719 351.232C173.436 350.946 173.511 351.415 173.866 351.941C174.034 352.184 174.227 352.41 174.44 352.616C175.132 353.238 175.945 353.713 176.828 354.01C178.377 354.582 180.036 354.737 181.585 355.28C182.054 355.442 182.503 355.656 182.923 355.92C183.293 356.121 183.613 356.404 183.857 356.747C184.101 357.09 184.263 357.484 184.33 357.898C184.398 358.313 184.369 358.738 184.246 359.14C184.124 359.543 183.911 359.911 183.623 360.219H183.651Z" fill="#464353"/>
<path opacity="0.06" d="M183.654 360.218C183.014 360.962 182.197 361.534 181.278 361.882C177.192 363.597 172.468 362.825 168.25 361.43C167.307 361.081 166.338 360.804 165.352 360.601C164.453 360.476 163.546 360.413 162.637 360.413C161.989 360.413 161.34 360.361 160.692 360.321C161.22 359.824 161.759 359.338 162.31 358.869C162.71 358.497 163.17 358.196 163.67 357.977C164.294 357.774 164.959 357.728 165.604 357.846C168.887 358.297 171.837 360.59 175.148 360.39C176.691 360.213 178.184 359.733 179.539 358.978C180.641 358.531 181.623 357.834 182.408 356.943C182.645 356.635 182.826 356.289 182.942 355.919C183.313 356.12 183.632 356.403 183.876 356.746C184.12 357.089 184.282 357.483 184.35 357.898C184.417 358.313 184.388 358.738 184.266 359.14C184.143 359.542 183.93 359.911 183.642 360.218H183.654Z" fill="black"/>
<path d="M182.502 260.867C181.928 262.01 181.193 263.251 179.954 263.605C178.152 264.12 176.419 262.508 175.632 260.815C174.561 258.332 174.359 255.561 175.058 252.949C175.386 251.629 175.885 250.359 176.166 249.033C176.369 247.917 176.492 246.788 176.533 245.655C176.703 243.964 176.663 242.259 176.413 240.578C175.489 235.667 171.248 232.003 169.836 227.178C169.124 224.771 169.159 222.21 169.199 219.701C169.186 219.066 169.251 218.432 169.394 217.814C169.437 217.645 169.494 217.481 169.566 217.322C170.513 215.23 173.32 214.944 175.271 213.727C176.35 213.058 178.8 210.903 179.707 212.869C179.903 213.307 180.049 213.765 180.143 214.235C180.516 215.985 180.367 218.037 180.459 219.689C180.809 225.932 182.37 232.163 181.647 238.371C181.474 239.43 181.39 240.501 181.394 241.573C181.549 244.26 183.237 246.586 184.011 249.159C185.205 253.029 184.247 257.242 182.502 260.867Z" fill="#FBBEBE"/>
<path opacity="0.1" d="M180.167 214.247C179.741 214.093 179.274 214.093 178.847 214.247L174.962 215.39C173.6 215.752 172.273 216.232 170.996 216.825C170.439 217.098 169.91 217.425 169.418 217.803C169.461 217.634 169.518 217.47 169.59 217.311C170.537 215.219 173.343 214.933 175.295 213.715C176.374 213.047 178.824 210.891 179.731 212.858C179.928 213.303 180.075 213.769 180.167 214.247V214.247Z" fill="black"/>
<path d="M180.422 213.812C180.188 213.67 179.924 213.585 179.651 213.563C179.378 213.541 179.103 213.583 178.85 213.686L174.964 214.829C173.603 215.191 172.276 215.671 170.999 216.264C170.321 216.593 169.687 217.004 169.11 217.488C167.297 214.349 166.815 210.628 166.482 207.026C166.298 204.928 166.161 202.824 166.08 200.738C165.99 199.236 166.021 197.73 166.172 196.233C166.39 194.518 166.889 192.843 167.199 191.139C167.384 190.142 167.503 189.134 167.555 188.121C167.704 185.908 167.602 183.685 167.251 181.495C166.917 179.167 166.383 176.872 165.655 174.635C165.288 173.612 164.846 172.623 164.445 171.617L164.307 171.262C163.581 169.418 162.989 167.525 162.533 165.597C162.35 164.808 162.338 163.979 161.73 163.442C162.301 163.373 162.877 163.35 163.452 163.373C163.566 163.373 163.681 163.373 163.796 163.373C166.154 163.521 168.425 164.312 170.362 165.66C172.855 167.452 174.751 169.95 175.802 172.828C177.013 176.047 177.214 179.546 177.369 182.981C177.679 189.735 177.87 196.492 177.943 203.253C177.943 204.551 178 205.934 178.746 207.003C178.956 207.267 179.147 207.544 179.32 207.832C179.59 208.404 179.55 209.038 179.768 209.616C179.928 209.962 180.11 210.298 180.313 210.622C180.57 211.111 180.713 211.652 180.732 212.204C180.751 212.757 180.645 213.306 180.422 213.812Z" fill="#464353"/>
<path d="M142.224 146.71C141.65 146.521 141.076 146.321 140.502 146.138L141.696 146.229C141.895 146.362 142.073 146.524 142.224 146.71Z" fill="#FBBEBE"/>
<path d="M165.725 167.341C165.61 167.73 165.495 168.119 165.369 168.485C165.078 169.424 164.723 170.343 164.308 171.234C163.657 172.699 162.736 174.03 161.593 175.156C161.215 175.552 160.752 175.857 160.239 176.048C159.804 176.159 159.355 176.201 158.907 176.174C157.377 176.174 155.846 176.151 154.316 176.105C153.124 176.118 151.935 176.001 150.769 175.756C149.486 175.408 148.266 174.86 147.154 174.133C142.866 171.492 139.343 167.467 137.833 162.699C137.644 162.093 137.512 161.367 137.931 160.893C138.343 160.558 138.862 160.381 139.394 160.396H139.463C140.697 160.236 141.886 159.829 142.958 159.201C143.653 158.847 144.213 158.277 144.554 157.577C144.786 156.748 144.768 155.869 144.502 155.05L143.228 149.288C143.095 148.365 142.747 147.486 142.212 146.721C142.585 146.853 142.958 146.973 143.36 147.075C146.907 148.03 150.786 147.453 154.264 148.705C155.596 149.191 156.927 150.065 157.329 151.426C158 153.713 155.756 156.085 156.399 158.372C156.83 159.927 158.419 160.824 159.843 161.55L160.801 162.036L163.458 163.38L163.825 163.563L163.883 163.591C164.721 164.014 165.605 164.54 165.897 165.438C166.022 166.076 165.962 166.736 165.725 167.341V167.341Z" fill="#FBBEBE"/>
<path opacity="0.1" d="M172.727 180.763C172.629 182.225 172.272 183.657 171.671 184.994C170.519 187.305 169.901 189.845 169.863 192.425C169.421 200.143 166.477 209.33 170.695 215.813C170.798 215.973 170.902 216.133 170.999 216.298C170.321 216.627 169.687 217.038 169.111 217.522C167.298 214.383 166.815 210.662 166.483 207.06C166.299 204.962 166.161 202.858 166.081 200.772C165.991 199.27 166.022 197.764 166.173 196.267C166.391 194.552 166.89 192.877 167.2 191.173C167.385 190.176 167.503 189.168 167.556 188.155C167.705 185.942 167.603 183.719 167.252 181.529C166.918 179.201 166.384 176.906 165.656 174.669C165.289 173.646 164.847 172.657 164.445 171.651L164.307 171.296C163.657 172.761 162.736 174.091 161.593 175.218C161.215 175.614 160.752 175.919 160.239 176.11C159.804 176.22 159.355 176.263 158.907 176.235C157.377 176.235 155.846 176.213 154.316 176.167C153.124 176.18 151.935 176.063 150.769 175.818C149.486 175.469 148.266 174.922 147.154 174.195C142.866 171.553 139.343 167.529 137.833 162.761C137.644 162.155 137.512 161.429 137.931 160.955C138.343 160.62 138.862 160.443 139.394 160.457H139.463L144.628 166.82C145.221 167.493 145.722 168.241 146.12 169.044C146.198 169.313 146.358 169.551 146.58 169.724C146.759 169.806 146.957 169.841 147.154 169.827C152.003 169.827 158.465 169.827 163.315 169.827C163.33 168.971 163.082 168.131 162.603 167.42C162.454 167.455 162.253 167.466 162.563 167.375C162.282 165.519 161.68 163.726 160.784 162.075C160.73 161.962 160.671 161.851 160.606 161.744C160.22 161.178 159.933 160.552 159.756 159.891C160.369 159.697 161.027 159.697 161.639 159.891C162.345 160.194 162.712 160.955 163.022 161.658C163.286 162.229 163.55 162.841 163.785 163.441C163.785 163.504 163.843 163.573 163.866 163.636C164.366 164.819 164.687 166.069 164.818 167.346C164.853 167.815 164.967 168.409 165.358 168.564C165.419 168.592 165.485 168.607 165.553 168.609C165.957 168.462 166.396 168.438 166.814 168.539C167.232 168.641 167.61 168.865 167.9 169.181C168.465 169.825 168.859 170.599 169.048 171.433C169.234 172.267 169.508 173.08 169.863 173.857C170.603 175.264 169.473 175.892 170.81 176.756C171.435 177.098 171.973 177.579 172.382 178.162C172.761 178.974 172.881 179.881 172.727 180.763V180.763Z" fill="black"/>
<path opacity="0.1" d="M139.397 360.024C139.667 361.338 139.971 362.642 140.293 363.945L140.258 364.025C137.636 362.882 134.95 361.687 132.086 361.436C129.429 361.207 126.542 361.921 124.734 363.842C124.709 363.423 124.653 363.007 124.568 362.596C124.394 362.125 124.414 361.605 124.625 361.15C125.44 359.669 127.409 359.372 128.924 359.257C132.434 358.994 135.964 359.252 139.397 360.024Z" fill="black"/>
<path opacity="0.1" d="M162.004 168.468C162.273 168.468 162.176 168.468 162.044 168.514C161.912 168.559 161.694 168.559 162.004 168.468Z" fill="black"/>
<path opacity="0.1" d="M174.469 352.616C171.91 354.24 169.504 356.095 167.284 358.155C166.639 358.843 165.87 359.403 165.017 359.807C164.136 360.09 163.205 360.185 162.285 360.087C158.675 359.942 155.076 359.587 151.507 359.024V359.024C151.266 358.919 151.061 358.747 150.914 358.529C150.768 358.312 150.687 358.057 150.681 357.795C150.727 357.069 151.484 356.652 152.15 356.337C158.055 353.793 164.472 352.69 170.842 351.804C171.49 351.696 172.121 351.504 172.719 351.232C173.436 350.946 173.511 351.415 173.866 351.941C174.043 352.186 174.245 352.412 174.469 352.616V352.616Z" fill="black"/>
<path d="M132.366 161.836C133.21 162.585 134.174 163.191 135.029 163.917C137.325 165.855 138.771 168.564 140.194 171.206C139.35 171.509 138.438 171.571 137.56 171.383C137.109 173.919 137.185 176.52 137.784 179.026C136.636 179.811 135.744 180.914 135.219 182.199C134.811 183.503 134.53 184.843 134.381 186.201C133.554 192.15 132.724 198.099 131.89 204.048C131.873 204.631 131.672 205.193 131.316 205.655C131.157 205.783 131.011 205.927 130.88 206.083C130.704 206.468 130.635 206.892 130.679 207.313C130.645 207.73 130.369 208.227 129.95 208.17C129.747 208.122 129.566 208.004 129.44 207.838C129.02 207.396 128.637 206.922 128.292 206.421C124.906 212.892 123.276 219.867 121.485 226.944C120.205 231.986 118.926 237.085 118.862 242.288C118.88 244.749 119.035 247.207 119.327 249.651L119.832 254.67C120.24 258.706 120.647 262.748 121.089 266.784C121.376 269.345 121.663 271.929 122.587 274.342C123.964 278.006 122.438 282.139 123.023 286.015C123.482 289.051 124.395 292.189 123.477 295.116C123.109 296.288 122.467 297.357 121.985 298.489C120.802 301.302 120.682 304.429 120.578 307.476C120.393 310.147 120.493 312.83 120.877 315.479C121.37 318.218 122.478 320.899 122.26 323.666C121.956 327.605 119.04 330.972 118.685 334.905C118.403 338.043 119.786 341.073 121.273 343.857C122.369 345.91 120.842 348.562 120.263 350.82C119.115 355.245 121.026 359.876 123.368 363.803C123.427 363.938 123.533 364.047 123.666 364.112C123.936 364.209 124.177 363.946 124.355 363.723C126.117 361.471 129.239 360.619 132.102 360.865C134.966 361.11 137.646 362.288 140.275 363.454L143.999 355.194C144.631 353.793 145.273 352.278 144.958 350.775C144.734 349.7 144.04 348.791 143.546 347.808C142.398 345.487 142.341 342.783 142.329 340.181L142.26 325.489C145.164 321.853 146.938 317.532 148.057 313.015C149.774 319.368 149.892 326.044 148.401 332.452C148.125 333.421 147.933 334.412 147.827 335.414C147.604 339.49 150.812 342.937 151.667 346.927C151.75 347.232 151.773 347.551 151.736 347.865C151.639 348.251 151.478 348.618 151.259 348.951C149.721 351.729 149.888 355.096 150.111 358.264C154.136 358.961 158.202 359.395 162.284 359.561C163.204 359.653 164.133 359.557 165.016 359.281C165.869 358.875 166.638 358.313 167.283 357.623C169.888 355.182 172.749 353.026 175.817 351.192C174.104 348.361 171.707 346.003 168.844 344.332C169.768 342.977 171.874 343.086 173.102 341.999C173.719 341.392 174.121 340.601 174.25 339.747C174.709 337.506 174.141 335.174 173.573 332.973C172.471 328.639 171.363 324.289 169.555 320.196C168.738 318.513 168.017 316.786 167.397 315.022C165.894 310.094 166.944 304.732 165.808 299.695C165.44 298.083 164.849 296.42 165.262 294.813C165.894 292.338 168.706 290.869 169.326 288.388C171.547 279.555 171.943 270.403 173.205 261.387C173.488 259.665 173.639 257.924 173.659 256.179C173.659 254.356 173.332 252.549 173.2 250.731C172.683 243.454 175.019 236.194 174.422 228.922C174.04 224.441 172.558 220.122 170.106 216.345C165.888 209.857 168.832 200.675 169.274 192.958C169.307 190.377 169.923 187.837 171.076 185.526C171.682 184.191 172.042 182.758 172.138 181.296C172.315 180.394 172.202 179.46 171.816 178.626C171.413 178.041 170.876 177.559 170.25 177.22C168.912 176.351 170.043 175.722 169.303 174.315C168.947 173.538 168.673 172.726 168.488 171.892C168.3 171.059 167.905 170.286 167.34 169.645C167.05 169.328 166.672 169.105 166.254 169.003C165.836 168.902 165.397 168.926 164.993 169.073C164.448 169.073 164.298 168.353 164.252 167.81C164.097 165.82 163.271 163.951 162.462 162.122C162.152 161.418 161.785 160.658 161.079 160.355C160.464 160.164 159.805 160.164 159.191 160.355C159.368 161.018 159.657 161.646 160.046 162.213C161.04 163.951 161.702 165.859 161.997 167.838C161.423 168.01 162.571 167.838 161.997 167.838C162.511 168.552 162.775 169.413 162.749 170.291C157.905 170.291 151.443 170.291 146.593 170.291C146.396 170.306 146.199 170.271 146.02 170.188C145.798 170.014 145.636 169.776 145.555 169.508C145.16 168.705 144.658 167.958 144.063 167.29L138.381 160.309C138.255 160.127 138.088 159.976 137.893 159.869C137.659 159.803 137.41 159.803 137.176 159.869C135.333 160.138 133.973 160.904 132.366 161.836Z" fill="#276EF1"/>
<path opacity="0.1" d="M152.755 256.414C153.735 256.401 154.7 256.649 155.55 257.134C155.972 257.381 156.322 257.734 156.566 258.157C156.809 258.58 156.938 259.059 156.939 259.547C156.876 260.627 156.044 261.485 155.441 262.405C155.068 262.966 154.771 263.573 154.558 264.212C154.492 264.357 154.476 264.519 154.512 264.675C154.58 264.892 154.816 265 155.017 265.098C155.747 265.427 156.37 265.952 156.818 266.614C157.265 267.277 157.517 268.05 157.548 268.848C157.496 271.077 155.309 272.884 155.43 275.136C155.485 275.605 155.565 276.071 155.671 276.531C155.933 278.451 155.666 280.406 154.896 282.185C154.202 283.98 153.255 285.666 152.509 287.444C150.494 292.275 150.058 297.626 150.213 302.88C150.334 306.447 149.065 309.843 147.917 313.238C148.566 306.398 148.739 299.522 148.434 292.658C148.354 290.794 148.118 289.034 148.204 287.164C148.342 284.197 150.006 281.499 150.431 278.589C150.672 276.926 150.512 275.233 150.552 273.553C150.632 270.123 151.567 266.738 151.631 263.297C151.711 260.867 151.487 258.363 152.755 256.414Z" fill="black"/>
<path d="M128.809 163.06C127.668 163.626 126.6 164.329 125.629 165.152C124.615 166.156 123.766 167.314 123.115 168.582C122.323 170.02 121.612 171.501 120.986 173.018C120.177 174.985 119.506 177.163 120.062 179.215C120.567 181.073 121.996 182.519 122.983 184.172C123.971 185.824 124.55 187.762 125.308 189.574C126.318 191.992 127.701 194.244 128.7 196.668C129.698 199.092 130.301 201.813 129.669 204.334C129.486 205.078 128.275 205.655 128.275 206.415C128.275 207.673 130.1 209.039 131.311 209.405C132.705 209.834 134.226 209.194 135.368 208.262C137.463 206.61 138.737 204.134 139.678 201.642C141.193 197.64 142.003 193.393 142.731 189.174C143.259 186.075 143.753 182.971 144.034 179.85C144.292 177.037 144.373 174.133 143.627 171.435C142.931 168.958 141.576 166.714 139.707 164.94C138.215 163.511 135.77 161.59 133.601 161.539C131.885 161.533 130.278 162.253 128.809 163.06Z" fill="#464353"/>
<path d="M145.121 231.974C145.059 232.365 144.912 232.738 144.691 233.066C144.47 233.395 144.18 233.672 143.841 233.878C143.164 234.288 142.426 234.589 141.655 234.77C140.117 235.216 138.487 235.627 136.932 235.233C135.709 234.837 134.581 234.197 133.614 233.352L116.237 220.101C114.841 219.115 113.557 217.98 112.409 216.716C111.749 215.901 111.144 215.043 110.595 214.15C109.869 213.127 109.3 212.001 108.908 210.811C108.768 210.287 108.698 209.747 108.701 209.205C108.697 208.692 108.823 208.186 109.069 207.735C109.488 207.038 110.383 206.895 111.117 206.701C113.583 206.066 116.142 205.872 118.676 206.129C118.898 206.118 119.118 206.18 119.303 206.305C119.487 206.43 119.625 206.611 119.697 206.821C120.082 207.524 120.415 208.256 120.759 208.987C121.287 210.235 121.976 211.409 122.808 212.48C123.609 213.348 124.462 214.167 125.362 214.933C127.198 216.648 128.702 218.706 130.659 220.284C132.926 222.107 135.68 223.199 138.263 224.543C140.846 225.886 143.394 227.63 144.691 230.231C144.992 230.762 145.141 231.365 145.121 231.974Z" fill="#FBBEBE"/>
<path opacity="0.1" d="M165.238 139.522C165.238 143.132 163.855 146.605 161.37 149.232C158.885 151.859 155.487 153.441 151.87 153.655C148.253 153.869 144.69 152.698 141.911 150.383C139.132 148.067 137.345 144.781 136.917 141.197C136.489 137.613 137.452 134.002 139.608 131.101C141.765 128.2 144.952 126.23 148.518 125.593C152.085 124.955 155.761 125.699 158.795 127.672C161.829 129.645 163.992 132.698 164.842 136.207C165.105 137.292 165.238 138.405 165.238 139.522V139.522Z" fill="black"/>
<path d="M165.238 138.95C165.238 142.56 163.855 146.033 161.37 148.66C158.885 151.287 155.487 152.869 151.87 153.083C148.253 153.297 144.69 152.126 141.911 149.811C139.132 147.495 137.345 144.209 136.917 140.625C136.489 137.041 137.452 133.43 139.608 130.529C141.765 127.629 144.952 125.658 148.518 125.021C152.085 124.383 155.761 125.127 158.795 127.1C161.829 129.073 163.992 132.126 164.842 135.635C165.105 136.72 165.238 137.833 165.238 138.95V138.95Z" fill="#FBBEBE"/>
<path opacity="0.1" d="M120.759 208.965C120.105 209.382 119.135 209.245 118.326 209.062C115.135 208.353 111.611 207.844 108.701 209.205C108.697 208.692 108.823 208.186 109.069 207.735C109.488 207.038 110.383 206.895 111.117 206.701C113.583 206.066 116.142 205.872 118.676 206.129C118.898 206.118 119.118 206.18 119.303 206.305C119.487 206.43 119.625 206.611 119.697 206.821C120.082 207.501 120.415 208.233 120.759 208.965Z" fill="black"/>
<path d="M114.76 189.717C114.055 192.003 113.475 194.353 112.092 196.291C111.635 196.801 111.29 197.401 111.082 198.052C111.066 198.533 110.987 199.009 110.846 199.469C110.651 199.858 110.238 200.115 110.072 200.516C109.825 201.087 110.146 201.825 109.819 202.362C109.666 202.578 109.482 202.77 109.274 202.934C108.493 203.654 108.298 204.803 108.281 205.867C108.264 206.93 108.367 208.016 108.017 209.016C111.047 207.216 114.904 207.753 118.347 208.519C119.306 208.731 120.494 208.891 121.114 208.125C121.733 207.359 121.378 206.352 121.464 205.432C121.578 204.232 122.405 203.237 122.916 202.145C123.49 200.916 123.685 199.544 124.127 198.263C125.039 195.571 126.996 193.375 128.253 190.831C128.718 189.957 128.996 188.995 129.068 188.007C129.025 186.727 128.689 185.474 128.086 184.343C126.892 181.708 125.471 179.182 123.84 176.791C123.111 175.722 121.854 173.744 120.723 175.453C119.805 176.831 119.231 178.586 118.554 180.095C117.095 183.223 115.828 186.436 114.76 189.717Z" fill="#464353"/>
<path d="M166.541 167.523C164.818 167.642 163.09 167.375 161.484 166.743C159.877 166.111 158.433 165.129 157.256 163.87C157.057 163.69 156.914 163.459 156.842 163.201C156.81 162.867 156.904 162.532 157.106 162.264C157.795 161.206 158.983 160.509 159.534 159.371C160.085 158.234 159.896 156.924 159.947 155.678C160.039 153.443 160.923 151.23 160.997 149.03C161.024 148.466 160.982 147.902 160.871 147.349C160.607 146.527 160.445 145.677 160.389 144.816C160.464 143.141 161.979 141.838 162.231 140.186C162.559 138.082 160.808 136.253 159.046 135.041C157.703 134.112 156.244 133.361 154.707 132.805C153.764 132.469 152.786 132.233 151.792 132.102C149.939 131.853 148.052 132.063 146.3 132.714C145.575 132.986 144.888 133.352 144.257 133.8C143.881 134.037 143.568 134.36 143.344 134.743C143.16 135.174 143.078 135.642 143.103 136.11C143.069 138.448 143.333 140.935 142.214 142.97C141.64 144.062 140.664 144.948 140.188 146.103C139.993 146.583 139.871 147.09 139.826 147.606C139.769 148.142 139.74 148.68 139.74 149.218C139.706 152.231 139.74 155.409 141.278 158.022C141.821 158.812 142.314 159.635 142.753 160.486C142.966 160.916 143.065 161.394 143.04 161.874C143.015 162.353 142.867 162.818 142.61 163.224C142.299 163.595 141.906 163.888 141.462 164.082C140.322 164.626 139.082 164.931 137.819 164.976C136.556 165.021 135.297 164.806 134.122 164.345C135.497 163.047 136.441 161.362 136.829 159.515C137.216 157.668 137.029 155.747 136.291 154.009C135.876 153.307 135.607 152.529 135.499 151.722C135.557 150.995 135.751 150.285 136.073 149.63C136.86 147.482 136.981 145.148 136.423 142.93C136.073 141.569 135.465 140.254 135.355 138.854C135.264 137.796 135.311 136.732 135.493 135.687C135.808 133.816 136.635 132.069 137.884 130.637C139.132 129.206 140.754 128.146 142.569 127.575C142.862 127.477 143.143 127.386 143.465 127.306C144.857 126.998 146.28 126.846 147.706 126.854C150.891 126.751 154.122 126.66 157.193 127.489C158.995 127.959 160.672 128.818 162.105 130.004C163.122 130.856 163.934 131.925 164.481 133.131C164.78 133.826 165.005 134.551 165.153 135.292C165.285 135.904 165.382 136.521 165.48 137.139C166.174 141.535 166.869 146.017 166.128 150.407C165.835 152.122 165.325 153.837 165.095 155.587C164.538 159.617 165.543 163.624 166.541 167.523Z" fill="#464353"/>
<path d="M146.153 173.171C146.743 173.171 147.221 172.695 147.221 172.108C147.221 171.521 146.743 171.045 146.153 171.045C145.564 171.045 145.086 171.521 145.086 172.108C145.086 172.695 145.564 173.171 146.153 173.171Z" fill="white"/>
<path d="M164.175 172.67C164.764 172.67 165.242 172.194 165.242 171.606C165.242 171.019 164.764 170.543 164.175 170.543C163.585 170.543 163.107 171.019 163.107 171.606C163.107 172.194 163.585 172.67 164.175 172.67Z" fill="white"/>
<path opacity="0.1" d="M146.156 118.371L143.86 114.055C144.006 113.882 144.165 113.722 144.337 113.575C144.668 113.371 145.056 113.279 145.444 113.312L146.156 118.371Z" fill="black"/>
<path opacity="0.1" d="M152.488 113.112L149.888 116.942L148.407 112.74C149.039 112.47 149.723 112.341 150.41 112.363C151.14 112.495 151.842 112.748 152.488 113.112V113.112Z" fill="black"/>
<g opacity="0.1">
<path opacity="0.1" d="M142.61 162.092C142.299 162.463 141.906 162.757 141.462 162.95C139.427 163.92 137.105 164.113 134.937 163.493C134.684 163.798 134.412 164.087 134.122 164.356C135.297 164.818 136.556 165.033 137.819 164.988C139.082 164.942 140.322 164.638 141.462 164.093C141.906 163.9 142.299 163.606 142.61 163.236C142.807 162.95 142.942 162.627 143.005 162.286C143.068 161.945 143.059 161.595 142.977 161.258C142.92 161.56 142.794 161.846 142.61 162.092Z" fill="black"/>
<path opacity="0.1" d="M136.38 142.948C136.567 143.697 136.677 144.463 136.707 145.234C136.773 144.081 136.663 142.925 136.38 141.804C136.03 140.444 135.422 139.129 135.313 137.728C135.313 137.551 135.313 137.374 135.284 137.191C135.256 137.751 135.266 138.313 135.313 138.872C135.422 140.272 136.03 141.587 136.38 142.948Z" fill="black"/>
<path opacity="0.1" d="M166.087 150.425C166.331 148.914 166.435 147.383 166.397 145.852C166.377 147.001 166.274 148.148 166.087 149.282C165.795 150.997 165.284 152.712 165.054 154.461C164.936 155.4 164.892 156.346 164.922 157.291C164.938 156.727 164.982 156.164 165.054 155.605C165.284 153.855 165.795 152.158 166.087 150.425Z" fill="black"/>
<path opacity="0.1" d="M136.27 152.877C135.97 152.314 135.727 151.723 135.547 151.111C135.498 151.317 135.475 151.528 135.478 151.74C135.586 152.547 135.856 153.324 136.27 154.026C136.692 154.985 136.935 156.011 136.988 157.056C137.092 155.626 136.845 154.192 136.27 152.877V152.877Z" fill="black"/>
<path opacity="0.1" d="M160.872 147.326C160.922 147.587 160.959 147.85 160.981 148.115C160.981 148.029 160.981 147.949 160.981 147.863C161.007 147.3 160.965 146.736 160.855 146.183C160.728 145.583 160.522 144.988 160.424 144.382C160.396 144.518 160.378 144.655 160.373 144.794C160.434 145.655 160.602 146.506 160.872 147.326V147.326Z" fill="black"/>
<path opacity="0.1" d="M157.255 162.704C157.167 162.612 157.084 162.515 157.008 162.413C156.867 162.642 156.808 162.912 156.842 163.179C156.913 163.436 157.057 163.668 157.255 163.848C158.432 165.107 159.877 166.088 161.483 166.72C163.09 167.352 164.818 167.619 166.541 167.501C166.443 167.123 166.346 166.752 166.254 166.357C164.578 166.434 162.905 166.147 161.351 165.516C159.797 164.886 158.4 163.926 157.255 162.704V162.704Z" fill="black"/>
<path opacity="0.1" d="M162.215 139.1C162.212 139.08 162.212 139.058 162.215 139.038C162.542 136.934 160.792 135.105 159.03 133.893C157.686 132.964 156.228 132.213 154.691 131.657C153.747 131.321 152.77 131.085 151.776 130.954C149.923 130.705 148.036 130.915 146.284 131.566C145.558 131.838 144.872 132.204 144.241 132.652C143.865 132.889 143.552 133.212 143.328 133.595C143.144 134.026 143.062 134.494 143.087 134.962C143.087 135.356 143.087 135.75 143.087 136.151V136.105C143.062 135.637 143.144 135.17 143.328 134.739C143.552 134.356 143.865 134.032 144.241 133.795C144.872 133.347 145.558 132.982 146.284 132.709C148.036 132.058 149.923 131.848 151.776 132.098C152.77 132.228 153.747 132.464 154.691 132.801C156.228 133.356 157.686 134.108 159.03 135.036C160.493 136.019 161.934 137.437 162.215 139.1Z" fill="black"/>
<path opacity="0.1" d="M142.217 141.838C141.643 142.93 140.667 143.816 140.191 144.971C139.996 145.452 139.874 145.958 139.829 146.475C139.772 147.01 139.743 147.548 139.743 148.087C139.743 148.573 139.743 149.064 139.743 149.556C139.743 149.447 139.743 149.339 139.743 149.23C139.743 148.692 139.772 148.154 139.829 147.618C139.874 147.102 139.996 146.595 140.191 146.115C140.667 144.971 141.62 144.074 142.217 142.982C143.141 141.267 143.123 139.295 143.106 137.334C143.182 138.885 142.877 140.431 142.217 141.838V141.838Z" fill="black"/>
</g>
<path opacity="0.1" d="M165.121 135.332C165.042 135.444 164.949 135.546 164.845 135.635C164.643 135.801 164.416 135.936 164.174 136.035C162.504 136.756 162.573 134.406 161.7 133.6C161.141 133.189 160.454 132.987 159.76 133.028C158.081 132.944 156.399 132.87 154.716 132.805C151.909 132.702 149.109 132.651 146.308 132.714C144.965 132.737 143.626 132.792 142.291 132.88C140.741 132.982 139.077 133.183 137.757 133.914C137.305 134.162 136.896 134.48 136.546 134.858C136.23 135.201 135.898 135.635 135.461 135.715C135.776 133.845 136.603 132.097 137.852 130.666C139.101 129.234 140.722 128.174 142.538 127.603C145.477 125.422 149.148 124.458 152.784 124.91C156.421 125.363 159.741 127.198 162.05 130.033C163.068 130.884 163.88 131.953 164.426 133.16C164.734 133.858 164.966 134.586 165.121 135.332V135.332Z" fill="black"/>
<path d="M164.167 134.892C162.497 135.613 162.566 133.263 161.694 132.457C161.134 132.046 160.448 131.844 159.754 131.885C153.938 131.504 148.105 131.455 142.284 131.737C140.212 131.874 137.94 132.183 136.545 133.715C136.189 134.103 135.816 134.606 135.282 134.589C135.105 133.446 134.978 132.257 134.892 131.085C134.84 130.646 134.863 130.201 134.961 129.77C135.105 129.278 135.432 128.861 135.598 128.381C135.762 127.77 135.82 127.136 135.77 126.506C135.795 124.173 136.425 121.887 137.597 119.868C138.769 117.849 140.445 116.166 142.462 114.981C142.968 114.734 143.438 114.419 143.857 114.043C144.002 113.871 144.161 113.71 144.333 113.563C144.664 113.36 145.053 113.267 145.441 113.3C145.716 113.3 146.015 113.3 146.256 113.3C146.998 113.219 147.723 113.026 148.408 112.728C149.04 112.458 149.723 112.329 150.411 112.351C151.14 112.484 151.842 112.737 152.488 113.1C152.799 113.249 153.124 113.366 153.458 113.449C153.98 113.569 154.52 113.563 155.042 113.666C155.888 113.88 156.691 114.236 157.418 114.718C158.285 115.184 159.088 115.76 159.805 116.433C160.586 117.321 161.21 118.334 161.653 119.428C162.414 120.941 162.991 122.537 163.375 124.185C163.84 126.552 163.61 129.113 164.712 131.262C165.384 132.611 165.998 134.109 164.167 134.892Z" fill="#FED253"/>
<path opacity="0.1" d="M135.083 133.098C135.083 133.098 146.981 122.316 164.697 131.257C164.697 131.257 144.696 126.724 135.083 133.098Z" fill="black"/>
<path d="M5.44681 188.191C3.8284 185.55 1.39505 183.132 1.77383 180.136C6.22732 180.645 10.4512 179.564 14.5317 177.684C18.6121 175.803 22.3999 173.362 26.2221 170.966C27.7257 170.023 29.2236 169.097 30.7158 168.239C33.0802 166.89 35.4275 165.381 37.8322 164.061C41.2756 162.174 44.7879 160.63 48.656 160.333C49.3566 160.279 50.0597 160.262 50.7622 160.282C55.5256 160.373 60.4612 161.648 64.6507 159.521L64.9089 159.384C67.2849 158.087 69.0123 155.88 71.0497 154.09C72.5144 152.829 74.1092 151.725 75.8073 150.798C78.9007 149.083 82.2523 147.711 85.4145 146.093C86.2239 145.677 86.9925 145.187 87.7101 144.629L88.2496 144.201L88.3701 144.098C88.5021 143.989 88.6341 143.88 88.7603 143.766L89.0071 143.549L89.2596 143.32L89.4548 143.137L89.7704 142.84L89.8048 142.8L90.3041 142.308L90.505 142.108L90.8551 141.748L91.0617 141.542C91.4118 141.182 91.7618 140.816 92.1177 140.462C92.4735 140.107 92.9556 139.627 93.386 139.233L93.7992 138.867L93.9197 138.764L94.2526 138.489L94.4075 138.358L94.7347 138.106L94.8954 137.981C95.056 137.861 95.2225 137.746 95.3889 137.632C95.5421 137.526 95.7032 137.433 95.871 137.352L94.7978 134.762L97.8854 133.493L140.469 236.423L137.376 237.692L113.019 178.81L112.847 178.981C107.205 184.527 100.294 188.624 92.7088 190.918H92.6629C88.4217 192.193 83.6756 193.096 80.1059 195.463C78.8401 196.282 77.7402 197.331 76.8633 198.555C76.0254 199.744 75.44 201.099 74.5677 202.243C74.4013 202.454 74.2176 202.66 74.034 202.854C72.9903 203.885 71.8355 204.798 70.5906 205.576L70.0453 205.947C66.3478 208.539 62.4955 210.904 58.5099 213.03C56.2099 214.223 53.8118 215.217 51.3418 216.003C49.5455 216.575 47.6918 216.992 45.8955 217.558C44.6872 217.922 43.5137 218.393 42.389 218.964C39.3473 220.548 37.0115 223.029 34.802 225.676C32.8679 227.997 31.0314 230.455 28.908 232.57C27.5765 233.885 25.5506 235.131 23.9437 234.359L23.6166 234.171C23.6682 234.085 23.7084 233.999 23.7543 233.908C25.0226 231.261 23.4616 227.991 21.3611 225.87C21.1431 225.647 20.9192 225.43 20.6897 225.224C20.4601 225.018 20.0469 224.652 19.7198 224.367C17.9235 222.829 16.0124 221.4 14.767 219.416C13.8165 217.75 13.1713 215.928 12.8616 214.036C12.2877 211.344 11.9032 208.571 10.434 206.279C9.46987 204.764 8.03511 203.472 6.9906 202.02C6.33035 201.16 5.89632 200.15 5.72802 199.081C5.49272 197.223 6.35931 195.405 6.68644 193.553C6.78375 193.049 6.82418 192.535 6.80696 192.021C6.68707 190.65 6.21901 189.332 5.44681 188.191V188.191Z" fill="url(#paint0_linear_531_204)"/>
<path d="M136.295 236.807L139.335 235.559L97.4609 134.359L94.4206 135.608L136.295 236.807Z" fill="#D6D8E1"/>
<path d="M11.4643 205.918C12.9048 208.176 13.2893 210.897 13.846 213.544C14.1547 215.405 14.79 217.197 15.7226 218.838C16.9508 220.787 18.8274 222.194 20.5893 223.703C20.9107 223.983 21.2321 224.275 21.542 224.549C21.7658 224.749 21.9897 224.966 22.202 225.178C24.268 227.265 25.8004 230.483 24.555 233.084C24.5168 233.173 24.4727 233.259 24.423 233.341C24.5238 233.41 24.6293 233.471 24.7387 233.524C26.3226 234.29 28.3141 233.067 29.6226 231.769C31.7116 229.688 33.5194 227.276 35.419 224.995C37.5883 222.388 39.8897 219.947 42.8797 218.392C43.9835 217.829 45.136 217.366 46.3231 217.009C48.085 216.437 49.91 216.031 51.6777 215.482C54.1055 214.709 56.4632 213.732 58.7252 212.561C62.6504 210.468 66.4451 208.141 70.0885 205.592L70.628 205.226C71.8514 204.463 72.9869 203.567 74.014 202.557C74.1976 202.362 74.3755 202.162 74.542 201.951C75.4258 200.807 76.0054 199.498 76.8376 198.326C77.7006 197.122 78.783 196.091 80.0285 195.285C83.5408 192.958 88.2009 192.066 92.3731 190.814H92.4191C99.8748 188.555 106.669 184.528 112.219 179.078C112.679 178.695 113.022 178.192 113.212 177.626C113.389 176.82 112.953 176.02 112.534 175.311C112.047 174.476 111.57 173.641 111.1 172.795C108.983 168.958 107.094 165.001 105.441 160.944C105.079 160.053 104.729 159.167 104.391 158.269C103.522 155.982 102.73 153.663 102.015 151.312C101.779 150.534 101.55 149.751 101.332 148.968C101.292 148.819 101.246 148.659 101.206 148.488C100.253 144.675 98.9788 135.751 95.0533 138.42C93.8858 139.252 92.8001 140.192 91.8107 141.227C91.0474 141.999 90.3014 142.794 89.5151 143.56C88.8747 144.187 88.1983 144.777 87.4892 145.326C86.7697 145.875 86.0013 146.357 85.1936 146.767C82.0773 148.356 78.7831 149.688 75.7472 151.392C74.0753 152.302 72.5055 153.386 71.0641 154.627C69.0612 156.388 67.3624 158.561 65.0267 159.835L64.7741 159.973C60.6535 162.059 55.804 160.807 51.1152 160.716C50.4261 160.698 49.7366 160.716 49.0492 160.767C45.2442 161.053 41.7664 162.574 38.4033 164.432C36.0388 165.735 33.7317 167.21 31.4074 168.542C29.9382 169.382 28.469 170.291 26.9883 171.223C23.235 173.578 19.43 176.048 15.5103 177.832C11.493 179.65 7.34364 180.736 2.96476 180.238C2.59173 183.183 4.97916 185.561 6.57462 188.156C7.3409 189.272 7.80542 190.565 7.92329 191.912C7.94438 192.416 7.90779 192.92 7.81424 193.416C7.49286 195.239 6.66644 197.023 6.87304 198.858C7.0359 199.904 7.4602 200.893 8.10694 201.733C9.10553 203.157 10.5116 204.432 11.4643 205.918Z" fill="#F86D70"/>
<path d="M128.145 217.825C128.145 217.825 133.172 222.193 138.269 224.52C143.365 226.846 139.99 235.193 139.99 235.193C139.99 235.193 134.59 236.428 130.808 231.191C127.026 225.954 128.145 217.825 128.145 217.825Z" fill="#FBBEBE"/>
<path d="M399.048 292.172C399.048 292.172 385.733 309.626 374.685 309.768C363.638 309.911 357.153 317.12 362.398 321.625C367.644 326.13 424.804 319.052 424.804 319.052C424.804 319.052 425.344 297.603 420.391 294.471C415.438 291.338 399.048 292.172 399.048 292.172Z" fill="#444176"/>
<path d="M542.201 313.124C542.201 313.124 544.239 326.947 537.943 336.374C531.647 345.801 549.318 349.437 549.318 349.437C549.318 349.437 562.156 352.998 563.091 340.364C564.027 327.73 563.723 318.069 562.517 317.04C561.312 316.011 560.308 308.905 560.308 308.905L542.201 313.124Z" fill="#444176"/>
<path d="M340.65 339.232C340.65 339.232 340.185 294.521 384.6 276.348L394.913 256.802L399.86 244.797C401.651 240.449 404.469 236.595 408.075 233.564C411.681 230.533 415.968 228.412 420.572 227.384L428.572 225.594L431.046 215.213C432.363 209.664 435.284 204.62 439.446 200.705C443.608 196.79 448.829 194.174 454.467 193.18C459.331 192.281 464.268 191.822 469.216 191.808C471.405 191.841 473.549 192.438 475.438 193.539C477.328 194.641 478.899 196.211 480 198.097V198.097C480 198.097 522.078 197.634 523.943 220.455C523.943 220.455 528.156 241.407 534.233 245.134C534.233 245.134 544.518 242.808 554.802 257.711L566.022 295.899C566.022 295.899 595.475 323.374 586.591 348.493C586.591 348.493 574.435 365.723 512.724 354.078C512.724 354.078 446.805 374.087 411.717 346.647C411.711 346.681 353.276 357.857 340.65 339.232Z" fill="#A8A8A8"/>
<path opacity="0.1" d="M370.103 332.246C370.103 332.246 379.457 319.206 378.987 309.888C378.516 300.57 381.19 277.874 381.19 277.874" stroke="black" stroke-miterlimit="10"/>
<path opacity="0.1" d="M404.237 297.317C404.237 297.317 413.586 280.087 412.65 270.774C412.65 270.774 422.47 253.052 429.948 254.47" stroke="black" stroke-miterlimit="10"/>
<path opacity="0.1" d="M455.658 248.416C455.658 248.416 481.369 239.104 482.775 231.655" stroke="black" stroke-miterlimit="10"/>
<path opacity="0.1" d="M465.011 269.843C465.011 269.843 492.128 257.735 492.128 254.47H505.677C505.677 254.47 525.316 280.087 522.981 291.264" stroke="black" stroke-miterlimit="10"/>
<path opacity="0.1" d="M496.802 288.467C496.802 288.467 470.621 286.604 461.266 294.058C451.912 301.513 435.085 305.235 435.085 305.235C435.085 305.235 425.265 326.192 421.524 329.914C417.782 333.635 411.704 346.681 411.704 346.681" stroke="black" stroke-miterlimit="10"/>
<path opacity="0.1" d="M496.803 313.153C496.803 313.153 499.603 322.928 503.345 328.519C507.087 334.11 512.694 354.13 512.694 354.13" stroke="black" stroke-miterlimit="10"/>
<path opacity="0.1" d="M540.749 341.559C540.749 341.559 546.683 358.007 551.9 358.167" stroke="black" stroke-miterlimit="10"/>
<path opacity="0.1" d="M501.877 270.963C501.877 270.963 517.292 275.113 523.737 285.169C530.182 295.225 549.867 304.343 549.867 304.343" stroke="black" stroke-miterlimit="10"/>
<path opacity="0.1" d="M508.493 221.421C508.493 221.421 508.493 242.842 514.57 242.842C520.648 242.842 534.209 245.168 534.209 245.168" stroke="black" stroke-miterlimit="10"/>
<path opacity="0.1" d="M478.702 195.983C478.702 195.983 477.147 232.987 469.198 242.568" stroke="black" stroke-miterlimit="10"/>
<g opacity="0.05">
<path opacity="0.05" d="M565.061 295.453L553.841 257.265C543.557 242.361 533.272 244.688 533.272 244.688C527.195 240.961 522.988 220.003 522.988 220.003C521.117 197.182 479.039 197.65 479.039 197.65C477.936 195.762 476.361 194.189 474.467 193.087C472.573 191.985 470.425 191.391 468.232 191.362C466.246 191.362 464.215 191.425 462.183 191.591C463.331 191.705 464.431 191.867 465.483 192.077L468.754 197.668C468.754 197.668 510.827 197.199 512.698 220.02C512.698 220.02 516.91 240.978 522.988 244.705C522.988 244.705 533.272 242.373 543.557 257.282L554.777 295.47C554.777 295.47 584.229 322.945 575.345 348.064C575.345 348.064 569.348 356.565 544.4 357.594C578.037 358.823 585.63 348.064 585.63 348.064C594.514 322.927 565.061 295.453 565.061 295.453Z" fill="black"/>
<path opacity="0.05" d="M400.493 346.212C390.596 347.986 380.588 349.077 370.541 349.476C382.254 349.922 394.438 348.659 402.289 347.584C401.68 347.121 401.084 346.675 400.493 346.212Z" fill="black"/>
<path opacity="0.05" d="M501.473 353.667C487.08 357.688 472.265 360.021 457.329 360.618C478.879 361.396 499.293 356.92 507.706 354.77C505.674 354.433 503.614 354.05 501.473 353.667Z" fill="black"/>
</g>
<path d="M127.896 426.304C127.896 426.304 140.757 425.91 144.631 423.16C148.505 420.41 164.408 417.129 165.372 421.536C166.336 425.944 184.695 443.46 170.176 443.58C155.656 443.7 136.447 441.328 132.579 438.978C128.711 436.629 127.896 426.304 127.896 426.304Z" fill="#A8A8A8"/>
<path opacity="0.2" d="M170.439 442.043C155.92 442.163 136.705 439.79 132.837 437.469C129.893 435.68 128.717 429.266 128.326 426.31H127.896C127.896 426.31 128.711 436.64 132.579 438.984C136.447 441.328 155.661 443.701 170.175 443.586C174.371 443.552 175.817 442.066 175.737 439.865C175.157 441.191 173.556 442.02 170.439 442.043Z" fill="black"/>
<path d="M441.44 394.176C441.44 394.176 426.295 391.157 422.26 387.133C418.226 383.108 400.05 376.076 398.03 381.101C396.01 386.126 370.775 403.225 387.935 406.255C405.095 409.285 428.315 410.257 433.365 408.267C438.416 406.278 441.44 394.176 441.44 394.176Z" fill="#A8A8A8"/>
<path opacity="0.2" d="M387.936 404.357C405.101 407.37 428.315 408.359 433.366 406.364C437.205 404.832 439.879 397.474 440.935 394.05L441.44 394.159C441.44 394.159 438.41 406.221 433.366 408.233C428.321 410.246 405.101 409.239 387.936 406.221C382.983 405.352 381.565 403.305 382.099 400.721C382.524 402.425 384.251 403.723 387.936 404.357Z" fill="black"/>
<path opacity="0.1" d="M296.422 65.6579H292.818C293.487 65.6579 294.13 65.3928 294.603 64.9211C295.077 64.4494 295.343 63.8096 295.343 63.1425C295.343 62.4754 295.077 61.8356 294.603 61.3638C294.13 60.8921 293.487 60.6271 292.818 60.6271H263.618C262.948 60.6271 262.306 60.8921 261.832 61.3638C261.358 61.8356 261.092 62.4754 261.092 63.1425C261.092 63.8096 261.358 64.4494 261.832 64.9211C262.306 65.3928 262.948 65.6579 263.618 65.6579H267.222C266.573 65.6887 265.962 65.9668 265.514 66.4346C265.067 66.9024 264.817 67.524 264.817 68.1704C264.817 68.8167 265.067 69.4383 265.514 69.9061C265.962 70.3739 266.573 70.6521 267.222 70.6829H262.177C261.507 70.6829 260.865 70.9479 260.391 71.4196C259.918 71.8913 259.652 72.5311 259.652 73.1982C259.652 73.8654 259.918 74.5052 260.391 74.9769C260.865 75.4486 261.507 75.7136 262.177 75.7136H291.377C292.047 75.7136 292.689 75.4486 293.163 74.9769C293.636 74.5052 293.902 73.8654 293.902 73.1982C293.902 72.5311 293.636 71.8913 293.163 71.4196C292.689 70.9479 292.047 70.6829 291.377 70.6829H296.422C296.763 70.6991 297.104 70.6461 297.424 70.5272C297.745 70.4082 298.037 70.2258 298.285 69.9909C298.532 69.756 298.729 69.4735 298.863 69.1606C298.998 68.8477 299.067 68.5108 299.067 68.1704C299.067 67.8299 298.998 67.4931 298.863 67.1801C298.729 66.8672 298.532 66.5847 298.285 66.3498C298.037 66.1149 297.745 65.9325 297.424 65.8135C297.104 65.6946 296.763 65.6416 296.422 65.6579V65.6579Z" fill="#276EF1"/>
<path opacity="0.1" d="M409.837 154.157H406.233C406.881 154.126 407.492 153.848 407.94 153.38C408.388 152.913 408.637 152.291 408.637 151.645C408.637 150.998 408.388 150.377 407.94 149.909C407.492 149.441 406.881 149.163 406.233 149.132H377.004C376.662 149.116 376.321 149.169 376.001 149.288C375.681 149.407 375.388 149.589 375.141 149.824C374.894 150.059 374.697 150.342 374.562 150.655C374.428 150.967 374.358 151.304 374.358 151.645C374.358 151.985 374.428 152.322 374.562 152.635C374.697 152.948 374.894 153.23 375.141 153.465C375.388 153.7 375.681 153.883 376.001 154.002C376.321 154.12 376.662 154.173 377.004 154.157H380.608C379.96 154.188 379.348 154.466 378.901 154.934C378.453 155.402 378.203 156.023 378.203 156.67C378.203 157.316 378.453 157.938 378.901 158.405C379.348 158.873 379.96 159.151 380.608 159.182H375.563C374.894 159.182 374.251 159.447 373.778 159.919C373.304 160.391 373.038 161.031 373.038 161.698C373.038 162.365 373.304 163.005 373.778 163.476C374.251 163.948 374.894 164.213 375.563 164.213H404.758C405.427 164.213 406.07 163.948 406.543 163.476C407.017 163.005 407.283 162.365 407.283 161.698C407.283 161.031 407.017 160.391 406.543 159.919C406.07 159.447 405.427 159.182 404.758 159.182H409.837C410.178 159.198 410.519 159.146 410.839 159.027C411.16 158.908 411.452 158.725 411.7 158.49C411.947 158.255 412.144 157.973 412.278 157.66C412.413 157.347 412.482 157.01 412.482 156.67C412.482 156.329 412.413 155.992 412.278 155.68C412.144 155.367 411.947 155.084 411.7 154.849C411.452 154.614 411.16 154.432 410.839 154.313C410.519 154.194 410.178 154.141 409.837 154.157V154.157Z" fill="#276EF1"/>
<path opacity="0.1" d="M241.78 137.785H238.176C238.518 137.801 238.859 137.748 239.179 137.629C239.499 137.51 239.792 137.328 240.039 137.093C240.287 136.858 240.483 136.576 240.618 136.263C240.753 135.95 240.822 135.613 240.822 135.272C240.822 134.932 240.753 134.595 240.618 134.282C240.483 133.969 240.287 133.687 240.039 133.452C239.792 133.217 239.499 133.035 239.179 132.916C238.859 132.797 238.518 132.744 238.176 132.76H208.97C208.629 132.744 208.288 132.797 207.968 132.916C207.648 133.035 207.355 133.217 207.108 133.452C206.86 133.687 206.663 133.969 206.529 134.282C206.394 134.595 206.325 134.932 206.325 135.272C206.325 135.613 206.394 135.95 206.529 136.263C206.663 136.576 206.86 136.858 207.108 137.093C207.355 137.328 207.648 137.51 207.968 137.629C208.288 137.748 208.629 137.801 208.97 137.785H212.575C212.233 137.769 211.892 137.822 211.572 137.941C211.252 138.06 210.959 138.242 210.712 138.477C210.464 138.712 210.267 138.994 210.133 139.307C209.998 139.62 209.929 139.957 209.929 140.297C209.929 140.638 209.998 140.975 210.133 141.288C210.267 141.601 210.464 141.883 210.712 142.118C210.959 142.353 211.252 142.535 211.572 142.654C211.892 142.773 212.233 142.826 212.575 142.81H207.524C206.854 142.81 206.212 143.075 205.739 143.547C205.265 144.018 204.999 144.658 204.999 145.325C204.999 145.992 205.265 146.632 205.739 147.104C206.212 147.576 206.854 147.841 207.524 147.841H236.724C237.394 147.841 238.036 147.576 238.51 147.104C238.984 146.632 239.25 145.992 239.25 145.325C239.25 144.658 238.984 144.018 238.51 143.547C238.036 143.075 237.394 142.81 236.724 142.81H241.769C242.11 142.826 242.451 142.773 242.772 142.654C243.092 142.535 243.385 142.353 243.632 142.118C243.879 141.883 244.076 141.601 244.211 141.288C244.345 140.975 244.415 140.638 244.415 140.297C244.415 139.957 244.345 139.62 244.211 139.307C244.076 138.994 243.879 138.712 243.632 138.477C243.385 138.242 243.092 138.06 242.772 137.941C242.451 137.822 242.11 137.769 241.769 137.785H241.78Z" fill="#276EF1"/>
<defs>
<linearGradient id="paint0_linear_531_204" x1="-416228" y1="37466" x2="-449775" y2="37466" gradientUnits="userSpaceOnUse">
<stop stop-color="#808080" stop-opacity="0.25"/>
<stop offset="0.54" stop-color="#808080" stop-opacity="0.12"/>
<stop offset="1" stop-color="#808080" stop-opacity="0.1"/>
</linearGradient>
</defs>
</svg>